<?xml version="1.0" encoding="utf-8"?>
<!-- Generator: Adobe Illustrator 16.0.0, SVG Export Plug-In . SVG Version: 6.00 Build 0)  -->
<!DOCTYPE svg PUBLIC "-//W3C//DTD SVG 1.1//EN" "http://www.w3.org/Graphics/SVG/1.1/DTD/svg11.dtd">
<svg version="1.1" id="Layer_1" xmlns="http://www.w3.org/2000/svg" xmlns:xlink="http://www.w3.org/1999/xlink" x="0px" y="0px"
	 width="30px" height="30px" viewBox="0 0 30 30" enable-background="new 0 0 30 30" xml:space="preserve">
<g>
	<path fill="#242F3B" d="M15.004,28.811C7.393,28.811,1.2,22.617,1.2,15.006c0-7.612,6.192-13.804,13.804-13.804
		c7.614,0,13.809,6.192,13.809,13.804C28.813,22.617,22.618,28.811,15.004,28.811z"/>
	<path fill="#FFFFFF" d="M15.004,2.401c6.953,0,12.607,5.654,12.607,12.604c0,6.95-5.654,12.604-12.607,12.604
		c-6.95,0-12.604-5.653-12.604-12.604C2.4,8.054,8.054,2.401,15.004,2.401 M15.004,0.001C6.716,0.001,0,6.718,0,15.006
		S6.716,30.01,15.004,30.01s15.008-6.716,15.008-15.004C30.014,6.718,23.292,0.001,15.004,0.001L15.004,0.001z"/>
</g>
<g>
	<g>
		<path fill="#FFFFFF" d="M19.86,14.466l-2.158,2.157c-1.19,1.192-3.123,1.192-4.314,0c-0.188-0.187-0.334-0.397-0.463-0.615
			l1.002-1.002c0.048-0.048,0.107-0.076,0.164-0.108c0.069,0.237,0.19,0.461,0.376,0.646c0.595,0.596,1.562,0.595,2.157,0
			l2.157-2.156c0.596-0.595,0.596-1.563,0-2.157c-0.595-0.595-1.562-0.595-2.157,0l-0.768,0.768
			c-0.621-0.242-1.292-0.308-1.945-0.212l1.634-1.635c1.193-1.191,3.124-1.191,4.316,0C21.051,11.343,21.051,13.275,19.86,14.466
			L19.86,14.466z M14.155,18.014l-0.768,0.768c-0.594,0.595-1.563,0.595-2.157,0c-0.595-0.596-0.595-1.563,0-2.158l2.157-2.157
			c0.595-0.595,1.563-0.595,2.156,0c0.187,0.186,0.308,0.41,0.378,0.647c0.057-0.033,0.114-0.06,0.162-0.107l1.003-1.002
			c-0.128-0.219-0.275-0.429-0.464-0.616c-1.191-1.191-3.123-1.191-4.314,0l-2.157,2.156c-1.191,1.192-1.191,3.124,0,4.316
			c1.192,1.189,3.124,1.189,4.314,0l1.635-1.636C15.448,18.32,14.777,18.255,14.155,18.014L14.155,18.014z M14.155,18.014"/>
	</g>
</g>
</svg>
