<?xml version="1.0" encoding="utf-8"?>
<!-- Generator: Adobe Illustrator 16.0.0, SVG Export Plug-In . SVG Version: 6.00 Build 0)  -->
<!DOCTYPE svg PUBLIC "-//W3C//DTD SVG 1.1//EN" "http://www.w3.org/Graphics/SVG/1.1/DTD/svg11.dtd">
<svg version="1.1" id="Layer_1" xmlns="http://www.w3.org/2000/svg" xmlns:xlink="http://www.w3.org/1999/xlink" x="0px" y="0px"
	 width="30px" height="30px" viewBox="0 0 30 30" enable-background="new 0 0 30 30" xml:space="preserve">
<path opacity="0.85" fill="#FFFFFF" d="M14.898,27.943c-7.192,0-13.044-5.851-13.044-13.043c0-7.193,5.852-13.044,13.044-13.044
	c7.196,0,13.049,5.851,13.049,13.044C27.947,22.093,22.094,27.943,14.898,27.943z"/>
<path opacity="0.85" fill="#D82727" d="M14.898,2.383c6.905,0,12.519,5.615,12.519,12.516c0,6.901-5.614,12.515-12.519,12.515
	c-6.9,0-12.514-5.613-12.514-12.515C2.384,7.997,7.998,2.383,14.898,2.383 M14.898,0C6.668,0,0,6.67,0,14.9
	s6.668,14.898,14.898,14.898S29.801,23.13,29.801,14.9C29.804,6.67,23.128,0,14.898,0L14.898,0z"/>
<g>
	<path fill-rule="evenodd" clip-rule="evenodd" fill="#D82727" d="M21.936,12.079c0-1.163-0.942-2.104-2.104-2.104H9.969
		c-1.163,0-2.103,0.941-2.103,2.104v5.639c0,1.164,0.94,2.104,2.103,2.104h9.863c1.161,0,2.104-0.94,2.104-2.104V12.079z
		 M13.493,17.278v-5.297l4.019,2.648L13.493,17.278z M13.493,17.278"/>
</g>
</svg>
