<?xml version="1.0" encoding="utf-8"?>
<!-- Generator: Adobe Illustrator 16.0.0, SVG Export Plug-In . SVG Version: 6.00 Build 0)  -->
<!DOCTYPE svg PUBLIC "-//W3C//DTD SVG 1.1//EN" "http://www.w3.org/Graphics/SVG/1.1/DTD/svg11.dtd">
<svg version="1.1" id="Layer_1" xmlns="http://www.w3.org/2000/svg" xmlns:xlink="http://www.w3.org/1999/xlink" x="0px" y="0px"
	 width="30px" height="30px" viewBox="0 0 30 30" enable-background="new 0 0 30 30" xml:space="preserve">
<g>
	<path fill="#242F3B" d="M15.004,28.811C7.393,28.811,1.2,22.617,1.2,15.006c0-7.612,6.192-13.804,13.804-13.804
		c7.614,0,13.809,6.192,13.809,13.804C28.813,22.617,22.618,28.811,15.004,28.811z"/>
	<path fill="#FFFFFF" d="M15.004,2.401c6.953,0,12.607,5.654,12.607,12.604c0,6.95-5.654,12.604-12.607,12.604
		c-6.95,0-12.604-5.653-12.604-12.604C2.4,8.054,8.054,2.401,15.004,2.401 M15.004,0.001C6.716,0.001,0,6.718,0,15.006
		S6.716,30.01,15.004,30.01s15.008-6.716,15.008-15.004C30.014,6.718,23.292,0.001,15.004,0.001L15.004,0.001z"/>
</g>
<g>
	<g>
		<path fill="#FFFFFF" d="M19.207,17.695l-2.978-2.978l2.167-0.935c0.17-0.073,0.274-0.243,0.266-0.425
			c-0.009-0.183-0.131-0.341-0.305-0.397l-7.108-2.263c-0.157-0.05-0.328-0.009-0.444,0.108c-0.116,0.116-0.158,0.288-0.108,0.444
			l2.263,7.107c0.056,0.175,0.214,0.297,0.397,0.305c0.183,0.01,0.353-0.096,0.425-0.264l0.936-2.168l2.979,2.977
			c0.081,0.083,0.193,0.13,0.311,0.13c0.115,0,0.228-0.047,0.31-0.13l0.89-0.889C19.378,18.145,19.378,17.867,19.207,17.695
			L19.207,17.695z M19.207,17.695"/>
	</g>
</g>
</svg>
