<?xml version="1.0" encoding="utf-8"?>
<!-- Generator: Adobe Illustrator 16.0.0, SVG Export Plug-In . SVG Version: 6.00 Build 0)  -->
<!DOCTYPE svg PUBLIC "-//W3C//DTD SVG 1.1//EN" "http://www.w3.org/Graphics/SVG/1.1/DTD/svg11.dtd">
<svg version="1.1" id="Layer_1" xmlns="http://www.w3.org/2000/svg" xmlns:xlink="http://www.w3.org/1999/xlink" x="0px" y="0px"
	 width="30px" height="30px" viewBox="0 0 30 30" enable-background="new 0 0 30 30" xml:space="preserve">
<g>
	<path fill="#242F3B" d="M15.004,28.811C7.393,28.811,1.2,22.617,1.2,15.006c0-7.612,6.192-13.804,13.804-13.804
		c7.614,0,13.809,6.192,13.809,13.804C28.813,22.617,22.618,28.811,15.004,28.811z"/>
	<path fill="#FFFFFF" d="M15.004,2.401c6.953,0,12.607,5.654,12.607,12.604c0,6.95-5.654,12.604-12.607,12.604
		c-6.95,0-12.604-5.653-12.604-12.604C2.4,8.054,8.054,2.401,15.004,2.401 M15.004,0.001C6.716,0.001,0,6.718,0,15.006
		S6.716,30.01,15.004,30.01s15.008-6.716,15.008-15.004C30.014,6.718,23.292,0.001,15.004,0.001L15.004,0.001z"/>
</g>
<g>
	<g>
		<path fill="#FFFFFF" d="M15.01,18.62c0,0.204-0.118,0.391-0.303,0.476c-0.072,0.034-0.148,0.052-0.225,0.052
			c-0.12,0-0.239-0.042-0.336-0.122l-2.878-2.385H9.735c-0.291,0-0.526-0.235-0.526-0.527v-2.098c0-0.291,0.235-0.526,0.526-0.526
			h1.533l2.878-2.386c0.158-0.13,0.375-0.158,0.561-0.071c0.185,0.087,0.303,0.273,0.303,0.477V18.62z M17.033,17.797
			c-0.014,0.001-0.025,0.002-0.038,0.002c-0.14,0-0.273-0.056-0.372-0.154l-0.071-0.071c-0.184-0.184-0.206-0.476-0.051-0.686
			c0.395-0.531,0.603-1.161,0.603-1.823c0-0.711-0.236-1.378-0.683-1.929c-0.171-0.208-0.154-0.513,0.036-0.704l0.07-0.071
			c0.104-0.105,0.245-0.163,0.398-0.153c0.147,0.006,0.286,0.077,0.381,0.192c0.621,0.758,0.948,1.68,0.948,2.664
			c0,0.917-0.29,1.789-0.838,2.523C17.325,17.709,17.185,17.787,17.033,17.797L17.033,17.797z M19.209,19.425
			c-0.095,0.112-0.232,0.18-0.38,0.186c-0.008,0.001-0.014,0.001-0.022,0.001c-0.139,0-0.272-0.056-0.372-0.154l-0.068-0.069
			c-0.193-0.192-0.207-0.502-0.031-0.711c0.849-1.01,1.317-2.292,1.317-3.612c0-1.373-0.501-2.693-1.41-3.72
			c-0.185-0.208-0.175-0.523,0.021-0.721l0.068-0.069c0.103-0.103,0.236-0.161,0.389-0.156c0.145,0.005,0.281,0.069,0.378,0.177
			c1.099,1.237,1.704,2.831,1.704,4.488C20.804,16.658,20.237,18.207,19.209,19.425L19.209,19.425z M19.209,19.425"/>
	</g>
</g>
</svg>
