<?xml version="1.0" encoding="utf-8"?>
<!-- Generator: Adobe Illustrator 16.0.0, SVG Export Plug-In . SVG Version: 6.00 Build 0)  -->
<!DOCTYPE svg PUBLIC "-//W3C//DTD SVG 1.1//EN" "http://www.w3.org/Graphics/SVG/1.1/DTD/svg11.dtd">
<svg version="1.1" id="Layer_1" xmlns="http://www.w3.org/2000/svg" xmlns:xlink="http://www.w3.org/1999/xlink" x="0px" y="0px"
	 width="30px" height="30px" viewBox="0 0 30 30" enable-background="new 0 0 30 30" xml:space="preserve">
<g>
	<path fill="#242F3B" d="M15.004,28.811C7.393,28.811,1.2,22.617,1.2,15.006c0-7.612,6.192-13.804,13.804-13.804
		c7.614,0,13.809,6.192,13.809,13.804C28.813,22.617,22.618,28.811,15.004,28.811z"/>
	<path fill="#FFFFFF" d="M15.004,2.401c6.953,0,12.607,5.654,12.607,12.604c0,6.95-5.654,12.604-12.607,12.604
		c-6.95,0-12.604-5.653-12.604-12.604C2.4,8.054,8.054,2.401,15.004,2.401 M15.004,0.001C6.716,0.001,0,6.718,0,15.006
		S6.716,30.01,15.004,30.01s15.008-6.716,15.008-15.004C30.014,6.718,23.292,0.001,15.004,0.001L15.004,0.001z"/>
</g>
<polygon fill="#FFFFFF" points="20.391,14.338 15.673,14.338 15.673,9.621 14.338,9.621 14.338,14.338 9.621,14.338 9.621,15.672 
	14.338,15.672 14.338,20.39 15.673,20.39 15.673,15.672 20.391,15.672 "/>
</svg>
