<?xml version="1.0" encoding="utf-8"?>
<!-- Generator: Adobe Illustrator 16.0.0, SVG Export Plug-In . SVG Version: 6.00 Build 0)  -->
<!DOCTYPE svg PUBLIC "-//W3C//DTD SVG 1.1//EN" "http://www.w3.org/Graphics/SVG/1.1/DTD/svg11.dtd">
<svg version="1.1" id="Layer_1" xmlns="http://www.w3.org/2000/svg" xmlns:xlink="http://www.w3.org/1999/xlink" x="0px" y="0px"
	 width="30px" height="30px" viewBox="0 0 30 30" enable-background="new 0 0 30 30" xml:space="preserve">
<g>
	<path fill="#242F3B" d="M15.004,28.811C7.393,28.811,1.2,22.617,1.2,15.006c0-7.612,6.192-13.804,13.804-13.804
		c7.614,0,13.809,6.192,13.809,13.804C28.813,22.617,22.618,28.811,15.004,28.811z"/>
	<path fill="#FFFFFF" d="M15.004,2.401c6.953,0,12.607,5.654,12.607,12.604c0,6.95-5.654,12.604-12.607,12.604
		c-6.95,0-12.604-5.653-12.604-12.604C2.4,8.054,8.054,2.401,15.004,2.401 M15.004,0.001C6.716,0.001,0,6.718,0,15.006
		S6.716,30.01,15.004,30.01s15.008-6.716,15.008-15.004C30.014,6.718,23.292,0.001,15.004,0.001L15.004,0.001z"/>
</g>
<g>
	<path fill="#FFFFFF" d="M9.263,19.546v-8.799H8.235c-0.136,0-0.246,0.105-0.246,0.235v9.717c0,0.132,0.11,0.236,0.246,0.236h11.73
		c0.139,0,0.247-0.104,0.247-0.236v-0.915H9.511C9.373,19.784,9.263,19.675,9.263,19.546z"/>
	<path fill="#FFFFFF" d="M21.773,9.076H10.05c-0.137,0-0.249,0.107-0.249,0.237v9.717c0,0.129,0.112,0.237,0.249,0.237h11.726
		c0.137,0,0.25-0.108,0.25-0.237V9.313C22.023,9.183,21.911,9.076,21.773,9.076z M13.088,9.961c0.725,0,1.315,0.563,1.315,1.259
		c0,0.697-0.591,1.259-1.315,1.259c-0.728,0-1.316-0.562-1.316-1.259C11.772,10.523,12.36,9.961,13.088,9.961z M21.221,16.334
		h-0.019h-9.684h-0.777v-0.1l2.07-2.259l1.162,0.75l1.355-2.226l1.574,1.07l1.425-2.826l2.894,5.483V16.334z"/>
</g>
</svg>
