<?xml version="1.0" encoding="utf-8"?>
<!-- Generator: Adobe Illustrator 16.0.0, SVG Export Plug-In . SVG Version: 6.00 Build 0)  -->
<!DOCTYPE svg PUBLIC "-//W3C//DTD SVG 1.1//EN" "http://www.w3.org/Graphics/SVG/1.1/DTD/svg11.dtd">
<svg version="1.1" id="Layer_1" xmlns="http://www.w3.org/2000/svg" xmlns:xlink="http://www.w3.org/1999/xlink" x="0px" y="0px"
	 width="30px" height="30px" viewBox="0 0 30 30" enable-background="new 0 0 30 30" xml:space="preserve">
<g>
	<path fill="#242F3B" d="M15.004,28.811C7.393,28.811,1.2,22.617,1.2,15.006c0-7.612,6.192-13.804,13.804-13.804
		c7.614,0,13.809,6.192,13.809,13.804C28.813,22.617,22.618,28.811,15.004,28.811z"/>
	<path fill="#FFFFFF" d="M15.004,2.401c6.953,0,12.607,5.654,12.607,12.604c0,6.95-5.654,12.604-12.607,12.604
		c-6.95,0-12.604-5.653-12.604-12.604C2.4,8.054,8.054,2.401,15.004,2.401 M15.004,0.001C6.716,0.001,0,6.718,0,15.006
		S6.716,30.01,15.004,30.01s15.008-6.716,15.008-15.004C30.014,6.718,23.292,0.001,15.004,0.001L15.004,0.001z"/>
</g>
<g>
	<g>
		<path fill="#FFFFFF" d="M20.579,11.176c-0.063-0.106-0.168-0.18-0.287-0.204l-6.383-1.539c-0.21-0.041-0.417,0.076-0.49,0.276
			l-2.433,6.181l0.812,0.296l2.306-5.877l5.547,1.415c-0.348,1.074-1.172,3.315-1.961,5.401c-0.688,1.82-1.086,2.444-1.84,2.571
			c0-0.001-0.001-0.002-0.001-0.003c-1.54,0.216-1.512-1.747-1.512-1.747l-4.917-1.986c-0.349,2.216,1.353,2.748,1.353,2.748
			l3.6,1.634c0.001,0.001,0.563,0.269,1.175,0.24c1.646-0.038,2.226-1.234,2.95-3.15c1.048-2.771,2.112-5.874,2.123-5.907
			C20.656,11.408,20.642,11.282,20.579,11.176L20.579,11.176z M20.579,11.176"/>
	</g>
	<path fill="#FFFFFF" d="M17.67,13.668c0.038,0.01,0.076,0.016,0.115,0.016c0.19,0,0.363-0.126,0.416-0.318
		c0.063-0.23-0.072-0.469-0.303-0.531l-1.874-0.578c-0.228-0.063-0.468,0.072-0.53,0.302c-0.063,0.23,0.072,0.469,0.303,0.532
		L17.67,13.668z M17.67,13.668"/>
	<path fill="#FFFFFF" d="M14.743,14.291c-0.075,0.227,0.047,0.471,0.273,0.547l1.864,0.667c0.045,0.015,0.09,0.021,0.134,0.021
		c0.183,0.002,0.354-0.113,0.413-0.294c0.076-0.227-0.045-0.472-0.272-0.547l-1.864-0.666
		C15.063,13.943,14.819,14.064,14.743,14.291L14.743,14.291z M14.743,14.291"/>
	<path fill="#FFFFFF" d="M14.579,15.822c-0.227-0.075-0.471,0.049-0.545,0.276c-0.074,0.226,0.049,0.47,0.276,0.545l1.868,0.663
		c0.046,0.015,0.089,0.021,0.135,0.021c0.182,0,0.352-0.115,0.411-0.297c0.074-0.228-0.05-0.472-0.277-0.546L14.579,15.822z
		 M14.579,15.822"/>
	<path fill="#FFFFFF" d="M14.51,11.753c0.265,0,0.48,0.208,0.48,0.465c0,0.258-0.215,0.466-0.48,0.466
		c-0.265,0-0.479-0.208-0.479-0.466C14.031,11.961,14.245,11.753,14.51,11.753L14.51,11.753z M14.51,11.753"/>
	<path fill="#FFFFFF" d="M13.833,13.485c0.265,0,0.479,0.208,0.479,0.466s-0.214,0.466-0.479,0.466c-0.265,0-0.48-0.208-0.48-0.466
		S13.567,13.485,13.833,13.485L13.833,13.485z M13.833,13.485"/>
	<path fill="#FFFFFF" d="M13.109,15.272c0.265,0,0.479,0.209,0.479,0.467c0,0.257-0.214,0.466-0.479,0.466s-0.479-0.209-0.479-0.466
		C12.629,15.481,12.844,15.272,13.109,15.272L13.109,15.272z M13.109,15.272"/>
</g>
</svg>
