<?xml version="1.0" encoding="utf-8"?>
<!-- Generator: Adobe Illustrator 16.0.0, SVG Export Plug-In . SVG Version: 6.00 Build 0)  -->
<!DOCTYPE svg PUBLIC "-//W3C//DTD SVG 1.1//EN" "http://www.w3.org/Graphics/SVG/1.1/DTD/svg11.dtd">
<svg version="1.1" id="Layer_1" xmlns="http://www.w3.org/2000/svg" xmlns:xlink="http://www.w3.org/1999/xlink" x="0px" y="0px"
	 width="30px" height="30px" viewBox="0 0 30 30" enable-background="new 0 0 30 30" xml:space="preserve">
<g>
	<path fill="#242F3B" d="M15.004,28.811C7.393,28.811,1.2,22.617,1.2,15.006c0-7.612,6.192-13.804,13.804-13.804
		c7.614,0,13.809,6.192,13.809,13.804C28.813,22.617,22.618,28.811,15.004,28.811z"/>
	<path fill="#FFFFFF" d="M15.004,2.401c6.953,0,12.607,5.654,12.607,12.604c0,6.95-5.654,12.604-12.607,12.604
		c-6.95,0-12.604-5.653-12.604-12.604C2.4,8.054,8.054,2.401,15.004,2.401 M15.004,0.001C6.716,0.001,0,6.718,0,15.006
		S6.716,30.01,15.004,30.01s15.008-6.716,15.008-15.004C30.014,6.718,23.292,0.001,15.004,0.001L15.004,0.001z"/>
</g>
<g>
	<path fill="#FFFFFF" d="M13.172,12.669l-0.884-0.837c0.103-0.187,0.167-0.398,0.167-0.626c0-0.725-0.587-1.312-1.312-1.312
		s-1.312,0.587-1.312,1.312c0,0.723,0.587,1.311,1.312,1.311c0.255,0,0.492-0.076,0.693-0.203l0.883,0.835
		C12.854,12.972,13.003,12.81,13.172,12.669L13.172,12.669z M13.172,12.669"/>
	<path fill="#FFFFFF" d="M16.909,12.563l1.174-1.976c0.116,0.033,0.236,0.058,0.362,0.058c0.725,0,1.313-0.588,1.313-1.313
		c0-0.723-0.588-1.31-1.313-1.31s-1.31,0.586-1.31,1.31c0,0.36,0.145,0.687,0.379,0.923l-1.172,1.97
		C16.546,12.316,16.733,12.43,16.909,12.563L16.909,12.563z M16.909,12.563"/>
	<path fill="#FFFFFF" d="M20.959,14.217c-0.563,0-1.041,0.359-1.227,0.859l-1.631-0.161c0,0.012,0.001,0.023,0.001,0.035
		c0,0.213-0.021,0.421-0.064,0.623l1.63,0.16c0.1,0.626,0.638,1.104,1.291,1.104c0.725,0,1.312-0.586,1.312-1.309
		C22.271,14.805,21.684,14.217,20.959,14.217L20.959,14.217z M20.959,14.217"/>
	<path fill="#FFFFFF" d="M16.458,19.372l-0.365-1.594c-0.206,0.07-0.419,0.121-0.644,0.147l0.365,1.596
		c-0.419,0.219-0.708,0.652-0.708,1.157c0,0.723,0.585,1.31,1.312,1.31c0.723,0,1.31-0.587,1.31-1.31
		C17.729,19.969,17.163,19.394,16.458,19.372L16.458,19.372z M16.458,19.372"/>
	<path fill="#FFFFFF" d="M12.179,15.583l-2.03,0.681C9.915,15.905,9.51,15.67,9.052,15.67c-0.725,0-1.311,0.585-1.311,1.309
		c0,0.725,0.586,1.313,1.311,1.313s1.312-0.589,1.312-1.313c0-0.029-0.006-0.059-0.009-0.087l2.037-0.682
		C12.299,16.011,12.227,15.803,12.179,15.583L12.179,15.583z M12.179,15.583"/>
	<path fill="#FFFFFF" d="M17.354,14.95c0,1.243-1.005,2.249-2.248,2.249c-1.241,0-2.248-1.006-2.248-2.249
		c0-1.24,1.007-2.247,2.248-2.247C16.35,12.703,17.354,13.71,17.354,14.95L17.354,14.95z M17.354,14.95"/>
</g>
</svg>
